# xmcd
#
# Track frame offsets:
#	150
#	19622
#	40497
#	66680
#	91615
#	111140
#	132052
#	154797
#	180737
#	208250
#
# Disc length: 3084 seconds
#
# Revision: 1
# Processed by: cddbd v1.5.2PL0 Copyright (c) Steve Scherf et al.
# Submitted via: EZCDAudioConverter 8.0.2.1
#
DISCID=870c0a0a
DTITLE=Thùy Dương - Khúc Thụy Du
DYEAR=1995
DGENRE=Blues
TTITLE0=Khúc Thụy Du
TTITLE1=Trở về bến mơ
TTITLE2=Còn tuổi nào cho em
TTITLE3=Bài không tên số 8
TTITLE4=Đêm cuối cùng
TTITLE5=Chiếc lá cuối cùng
TTITLE6=Phôi pha
TTITLE7=Ru mãi ngàn năm
TTITLE8=Sao vẫn còn mưa rơi
TTITLE9=Biển, Mùa thu, Thùy Dương
EXTD=
EXTT0=
EXTT1=
EXTT2=
EXTT3=
EXTT4=
EXTT5=
EXTT6=
EXTT7=
EXTT8=
EXTT9=
PLAYORDER=
